PathFileType	4	(X/Y/Z)	C:\Users\dell\Documents\OpenSim\4.1\20210318\TRC_File\LX_20210318_static_0001.trc
DataRate	CameraRate	NumFrames	NumMarkers	Units	OrigDataRate	OrigDataStartFrame	OrigNumFrames
100.000000	100.000000	4	38	mm	100.000000	187	300
Frame#	Time	Sternum			R.Acromium			L.Acromium			R.Arm			L.Arm			R.Hand			L.Hand			R.ASIS			L.ASIS			V.Sacral			R.Thigh.Upper			R.Thigh.Front			R.Thigh.Rear			R.Knee.Lat			R.Knee.Med			R.Shank.Upper			R.Shank.Front			R.Shank.Rear			R.Ankle.Lat			R.Ankle.Med			R.Heel			R.Toe.Lat			R.Toe.Med			R.Toe.Tip			L.Thigh.Upper			L.Thigh.Front			L.Thigh.Rear			L.Knee.Lat			L.Knee.Med			L.Shank.Upper			L.Shank.Front			L.Shank.Rear			L.Ankle.Lat			L.Ankle.Med			L.Heel			L.Toe.Lat			L.Toe.Med			L.Toe.Tip			
		X1	Y1	Z1	X2	Y2	Z2	X3	Y3	Z3	X4	Y4	Z4	X5	Y5	Z5	X6	Y6	Z6	X7	Y7	Z7	X8	Y8	Z8	X9	Y9	Z9	X10	Y10	Z10	X11	Y11	Z11	X12	Y12	Z12	X13	Y13	Z13	X14	Y14	Z14	X15	Y15	Z15	X16	Y16	Z16	X17	Y17	Z17	X18	Y18	Z18	X19	Y19	Z19	X20	Y20	Z20	X21	Y21	Z21	X22	Y22	Z22	X23	Y23	Z23	X24	Y24	Z24	X25	Y25	Z25	X26	Y26	Z26	X27	Y27	Z27	X28	Y28	Z28	X29	Y29	Z29	X30	Y30	Z30	X31	Y31	Z31	X32	Y32	Z32	X33	Y33	Z33	X34	Y34	Z34	X35	Y35	Z35	X36	Y36	Z36	X37	Y37	Z37	X38	Y38	Z38	

188	1.87	-111.9660873413086	1296.731567382813	-6.663320541381836	-239.8043670654297	1451.235595703125	122.2765579223633	-239.4909362792969	1458.861694335938	-138.4709625244141	-310.0166931152344	1427.728393554688	428.6419677734375	-293.3302917480469	1428.174560546875	-450.5495300292969	-300.693359375	1426.5166015625	679.7987060546875	-259.2060546875	1411.230834960938	-683.152587890625	-139.2992248535156	974.3169555664063	130.4199981689453	-123.4288482666016	962.0338745117188	-100.7724456787109	-318.8587036132813	963.4083251953125	-5.02569580078125	-219.0409545898438	646.3113403320313	169.3291320800781	-156.3668975830078	617.7422485351563	99.84558868408203	-225.1048583984375	554.4075927734375	167.1688690185547	-248.77001953125	465.0820617675781	169.9664916992188	-252.2437744140625	461.8370056152344	40.10877227783203	-256.3053588867188	408.1199645996094	169.7360687255859	-207.5160369873047	358.160888671875	103.6819686889648	-273.4439392089844	289.23046875	175.4886016845703	-293.0059509277344	55.71737670898438	154.8807220458984	-277.0486145019531	81.77740478515625	70.31103515625	-331.1556701660156	25.22020721435547	97.58690643310547	-175.2527923583984	21.11303329467773	199.3204650878906	-122.7313537597656	20.40525054931641	108.4878463745117	-83.08051300048828	25.14480209350586	142.5511016845703	-192.6473236083984	668.0668334960938	-162.8432922363281	-149.6850128173828	628.4310302734375	-94.18597412109375	-198.1491088867188	570.5391845703125	-160.2987365722656	-218.6768493652344	463.6703186035156	-163.3194427490234	-273.4259643554688	457.8001098632813	-44.1134033203125	-225.6284942626953	403.0811767578125	-164.1631774902344	-204.6993865966797	357.5191955566406	-97.83987426757813	-242.2713775634766	297.60595703125	-167.4832000732422	-288.4946899414063	53.59915161132813	-150.8959655761719	-273.7734375	75.7086181640625	-62.40263366699219	-339.2885131835938	24.48240852355957	-94.15970611572266	-183.6169586181641	20.91070365905762	-188.4267578125	-131.6710205078125	22.67608833312988	-102.6623992919922	-92.39031982421875	24.40281677246094	-140.1497192382813	
189	1.88	-111.9695205688477	1296.754638671875	-6.658650875091553	-239.8473815917969	1451.246215820313	122.2755737304688	-239.5483703613281	1458.830932617188	-138.4896087646484	-310.1000366210938	1427.721801757813	428.6171264648438	-293.3335266113281	1428.187377929688	-450.5691223144531	-300.83056640625	1426.504272460938	679.7871704101563	-259.237060546875	1411.19921875	-683.1732788085938	-139.2550201416016	974.3359985351563	130.4477233886719	-123.3724899291992	962.0323486328125	-100.7444458007813	-318.7904052734375	963.3916625976563	-4.991655349731445	-218.9940338134766	646.3201904296875	169.3593292236328	-156.3230285644531	617.747314453125	99.88739776611328	-225.0497283935547	554.4255981445313	167.1891021728516	-248.7242431640625	465.0789794921875	169.9859466552734	-252.2045745849609	461.8432006835938	40.13832473754883	-256.2648315429688	408.1311950683594	169.7510223388672	-207.4704437255859	358.1557006835938	103.6929931640625	-273.4081115722656	289.2359924316406	175.5086822509766	-292.9947814941406	55.72142028808594	154.8736877441406	-277.0366516113281	81.77054595947266	70.32428741455078	-331.1495361328125	25.24154853820801	97.57966613769531	-175.2522888183594	21.12096405029297	199.3232727050781	-122.7140655517578	20.40914916992188	108.4963455200195	-83.08149719238281	25.13801956176758	142.5505828857422	-192.6082916259766	668.0446166992188	-162.8085479736328	-149.6239013671875	628.4224243164063	-94.1513671875	-198.0315551757813	570.6054077148438	-160.4754333496094	-218.6554718017578	463.6517028808594	-163.2947845458984	-273.3979187011719	457.8226318359375	-44.09751892089844	-225.6173706054688	403.0617065429688	-164.1392974853516	-204.6881103515625	357.5294799804688	-97.82364654541016	-242.2611389160156	297.6089782714844	-167.4676666259766	-288.4836120605469	53.59487915039063	-150.888427734375	-273.7764587402344	75.71466064453125	-62.40020370483398	-339.2839660644531	24.48361587524414	-94.16184234619141	-183.6139526367188	20.90602684020996	-188.4268646240234	-131.6809997558594	22.69239616394043	-102.6626358032227	-92.38850402832031	24.40177345275879	-140.1646118164063	
190	1.89	-111.976692199707	1296.778686523438	-6.665014266967773	-239.8931732177734	1451.2529296875	122.2600555419922	-239.6161651611328	1458.802001953125	-138.5	-310.1756286621094	1427.719116210938	428.6239929199219	-293.3473205566406	1428.15771484375	-450.5728149414063	-300.981689453125	1426.481567382813	679.7679443359375	-259.2973937988281	1411.134765625	-683.1798706054688	-139.2126770019531	974.370849609375	130.4657592773438	-123.3083419799805	962.0400390625	-100.7046432495117	-318.7498168945313	963.4008178710938	-4.973245620727539	-218.9459991455078	646.3289794921875	169.3797302246094	-156.2636413574219	617.7568359375	99.92282104492188	-224.9897003173828	554.4295043945313	167.20849609375	-248.6825103759766	465.0657348632813	170.0060424804688	-252.1503295898438	461.8597717285156	40.16411209106445	-256.2223205566406	408.1416320800781	169.7725067138672	-207.4379577636719	358.154296875	103.708366394043	-273.378662109375	289.23779296875	175.5129547119141	-292.97998046875	55.71697616577148	154.8668060302734	-277.0485229492188	81.77698516845703	70.31363677978516	-331.1413269042969	25.24241638183594	97.58302307128906	-175.2501068115234	21.11507225036621	199.3277282714844	-122.7230224609375	20.40714645385742	108.4900894165039	-83.06925201416016	25.13228034973145	142.5420837402344	-192.5724029541016	668.0433959960938	-162.7747192382813	-149.5621337890625	628.4039306640625	-94.10785675048828	-197.9438323974609	570.621337890625	-160.5182647705078	-218.6220245361328	463.6514892578125	-163.3040924072266	-273.387451171875	457.8046875	-44.07794189453125	-225.6068267822266	403.0764770507813	-164.1277923583984	-204.6645202636719	357.5362243652344	-97.79013824462891	-242.2623596191406	297.6326599121094	-167.4626770019531	-288.4815673828125	53.601318359375	-150.8871307373047	-273.7563171386719	75.71312713623047	-62.41875076293945	-339.2737121582031	24.50484657287598	-94.16190338134766	-183.6137542724609	20.91231155395508	-188.4205627441406	-131.6733551025391	22.68317985534668	-102.6627349853516	-92.38112640380859	24.41441535949707	-140.1554107666016	
191	1.9	-111.9808044433594	1296.799194335938	-6.681226253509521	-239.9260101318359	1451.24560546875	122.2645874023438	-239.6795806884766	1458.7744140625	-138.5039520263672	-310.2569885253906	1427.691528320313	428.6267700195313	-293.3886108398438	1428.080322265625	-450.5943908691406	-301.1118469238281	1426.443725585938	679.7401123046875	-259.3901062011719	1411.018920898438	-683.1844482421875	-139.1671600341797	974.379150390625	130.4870452880859	-123.2518615722656	962.0386962890625	-100.6689453125	-318.6958618164063	963.405517578125	-4.94415283203125	-218.9054260253906	646.3185424804688	169.4136352539063	-156.2209167480469	617.7532958984375	99.94317626953125	-224.9443206787109	554.4407958984375	167.2200012207031	-248.635498046875	465.0685729980469	170.0154724121094	-252.1190490722656	461.8605346679688	40.17321014404297	-256.1826477050781	408.1296081542969	169.7900238037109	-207.3961029052734	358.1523742675781	103.7303771972656	-273.3545532226563	289.2418518066406	175.5244750976563	-292.9905395507813	55.72832870483398	154.8684997558594	-277.0278625488281	81.77744293212891	70.31764221191406	-331.1542358398438	25.24950981140137	97.58188629150391	-175.2512969970703	21.11109733581543	199.3217010498047	-122.7240371704102	20.39371299743652	108.4862976074219	-83.07088470458984	25.14493370056152	142.5567321777344	-192.4944915771484	668.0439453125	-162.7599639892578	-149.4949493408203	628.3890991210938	-94.06990814208984	-197.8825073242188	570.6156005859375	-160.5207214355469	-218.5913543701172	463.6416931152344	-163.2885894775391	-273.3525085449219	457.82470703125	-44.05948257446289	-225.5692138671875	403.1018981933594	-164.1213226318359	-204.6486511230469	357.52880859375	-97.79311370849609	-242.2176513671875	297.6333618164063	-167.4517822265625	-288.4865417480469	53.59920883178711	-150.8936309814453	-273.7468566894531	75.73029327392578	-62.41145706176758	-339.2824401855469	24.51747894287109	-94.17430114746094	-183.6063537597656	20.90938568115234	-188.4290313720703	-131.6658172607422	22.68716430664063	-102.6598663330078	-92.37680816650391	24.40354156494141	-140.1546478271484	
